<svg height="512" viewBox="0 0 512 512" width="512" xmlns="http://www.w3.org/2000/svg" xmlns:xlink="http://www.w3.org/1999/xlink"><linearGradient id="a" gradientUnits="userSpaceOnUse" x1="11.869" x2="519.54" y1="508.827" y2="1.157" data-name="New Gradient Swatch 1"><stop offset="0" stop-color="#003f8a"/><stop offset=".518" stop-color="#00d7df"/><stop offset="1" stop-color="#006df0"/></linearGradient><linearGradient id="b" x1="-36.479" x2="471.191" xlink:href="#a" y1="460.479" y2="-47.191"/><g><path d="m472 464h-40v-16a8 8 0 0 0 -8-8h-8v-128h8a8 8 0 0 0 8-8v-16h8a8 8 0 0 0 8-8v-24a8 8 0 0 0 -4.81-7.34l-120.9-52.56a72.021 72.021 0 0 0 3.52-45.73l125.98-46.87a8.013 8.013 0 0 0 5.21-7.5v-41.38a24 24 0 1 0 -16 0v35.82l-120.83 44.96a72.13 72.13 0 0 0 -56.17-38.94v-41.84a24 24 0 1 0 -16 0v41.84a72.1 72.1 0 0 0 -56.16 38.94l-119.84-44.94v-35.84a24 24 0 1 0 -16 0v41.38a8.005 8.005 0 0 0 5.19 7.49l125 46.88a72.021 72.021 0 0 0 3.52 45.73l-120.9 52.56a8 8 0 0 0 -4.81 7.34v24a8 8 0 0 0 8 8h8v16a8 8 0 0 0 8 8h8v128h-8a8 8 0 0 0 -8 8v16h-40a8 8 0 0 0 -8 8v24a8 8 0 0 0 8 8h432a8 8 0 0 0 8-8v-24a8 8 0 0 0 -8-8zm-23-440a8 8 0 1 1 -8 8 8.011 8.011 0 0 1 8-8zm-385 16a8 8 0 1 1 8-8 8.011 8.011 0 0 1 -8 8zm352 256h-48v-8h48zm-128 144h-8v-128h8a8 8 0 0 0 8-8v-16h56v16a8 8 0 0 0 8 8h8v128h-8a8 8 0 0 0 -8 8v16h-56v-16a8 8 0 0 0 -8-8zm-136 0h-8v-128h8a8 8 0 0 0 8-8v-16h56v16a8 8 0 0 0 8 8h8v128h-8a8 8 0 0 0 -8 8v16h-56v-16a8 8 0 0 0 -8-8zm-56-144v-8h48v8zm32 16v128h-16v-128zm104 144h48v8h-48zm16-16v-128h16v128zm-16-144v-8h48v8zm136 160h48v8h-48zm16-16v-128h16v128zm-128-416a8 8 0 1 1 -8 8 8.011 8.011 0 0 1 8-8zm0 88a56 56 0 1 1 -56 56 56.062 56.062 0 0 1 56-56zm-176 160v-10.75l117.64-51.16a71.891 71.891 0 0 0 116.72 0l117.64 51.16v10.75zm16 184h48v8h-48zm368 32h-416v-8h416z" fill="url(#a)"/><path d="m240 184a8 8 0 0 0 0 16h8a8 8 0 0 0 16 0h8a8 8 0 0 0 8-8v-24a8 8 0 0 0 -8-8h-24v-8h24a8 8 0 0 0 0-16h-8a8 8 0 0 0 -16 0h-8a8 8 0 0 0 -8 8v24a8 8 0 0 0 8 8h24v8z" fill="url(#b)"/></g></svg>