<svg height="512" viewBox="0 0 512 512" width="512" xmlns="http://www.w3.org/2000/svg"><g><g><circle cx="256" cy="224" fill="#78b9eb" r="208"/><ellipse cx="256" cy="224" fill="#83d8f4" rx="104" ry="208"/><g><path d="m88 472h336v24h-336z" fill="#d8d7da"/><path d="m392 312v16h-272v-16l136-64z" fill="#d8d7da"/><path d="m144 352h32v96h-32z" fill="#787680"/><path d="m128 448h64v24h-64z" fill="#acabb1"/><path d="m336 352h32v96h-32z" fill="#787680"/><path d="m320 448h64v24h-64z" fill="#acabb1"/><path d="m128 328h64v24h-64z" fill="#acabb1"/><path d="m240 352h32v96h-32z" fill="#787680"/><g fill="#acabb1"><path d="m224 448h64v24h-64z"/><path d="m224 328h64v24h-64z"/><path d="m320 328h64v24h-64z"/></g></g></g><path d="m424 464h-32v-16a8 8 0 0 0 -8-8h-8v-36.4a215.954 215.954 0 1 0 -308.3-73.7 217.592 217.592 0 0 0 68.3 73.71v36.39h-8a8 8 0 0 0 -8 8v16h-32a8 8 0 0 0 -8 8v24a8 8 0 0 0 8 8h336a8 8 0 0 0 8-8v-24a8 8 0 0 0 -8-8zm-96-120v-8h48v8zm-40 96h-8v-1.33a214.593 214.593 0 0 0 48-10.97v12.3h-8a8 8 0 0 0 -8 8v16h-16v-16a8 8 0 0 0 -8-8zm-96 0h-8v-12.3a214.36 214.36 0 0 0 48 10.98v1.32h-8a8 8 0 0 0 -8 8v16h-16v-16a8 8 0 0 0 -8-8zm-56-96v-8h48v8zm32 16v80h-16v-80zm56 0h8v57.45c-17.37-9.63-33.36-29.53-45.95-57.45h5.95a8 8 0 0 0 8-8v-16h16v16a8 8 0 0 0 8 8zm-18.11 57.67a195.647 195.647 0 0 1 -21.89-7.03v-20.4a139.368 139.368 0 0 0 21.89 27.43zm26.11 38.33h48v8h-48zm16-16v-80h16v80zm-16-96v-8h48v8zm88 16h5.95c-12.59 27.92-28.58 47.82-45.95 57.45v-57.45h8a8 8 0 0 0 8-8v-16h16v16a8 8 0 0 0 8 8zm8 30.24v20.4a198.247 198.247 0 0 1 -21.88 7.03 139.7 139.7 0 0 0 21.88-27.43zm0 65.76h48v8h-48zm16-16v-80h16v80zm32-56v-24h8a8 8 0 0 0 8-8v-16a8 8 0 0 0 8-8v-16a8 8 0 0 0 -4.59-7.24l-32.56-15.32a407.51 407.51 0 0 0 5.06-57.44h87.91a199.056 199.056 0 0 1 -79.82 152zm79.83-168h-87.91c-1-53.79-11.99-104.18-31.23-142.66-8.9-17.8-19.15-32.2-30.36-42.92 83.51 21.72 145.96 96.21 149.5 185.58zm-191.83-191.27c21.67 3.85 42.15 23.31 58.38 55.77 18.16 36.32 28.56 84.17 29.54 135.5h-87.92zm0 207.27h87.91a391.463 391.463 0 0 1 -4.17 50.33l-83.74-39.41zm120 85.08v2.92h-256v-2.92l128-60.24zm-223.91-85.08h87.91v10.92l-83.74 39.41a391.463 391.463 0 0 1 -4.17-50.33zm87.91-207.27v191.27h-87.92c.98-51.33 11.38-99.18 29.54-135.5 16.23-32.46 36.71-51.92 58.38-55.77zm-42.33 5.69c-11.21 10.72-21.46 25.12-30.36 42.92-19.24 38.48-30.23 88.87-31.23 142.66h-87.91c3.54-89.37 65.99-163.86 149.5-185.58zm-149.49 201.58h87.91a407.51 407.51 0 0 0 5.06 57.44l-32.56 15.32a8 8 0 0 0 -4.59 7.24v16a8 8 0 0 0 8 8v16a8 8 0 0 0 8 8h8v24a198.85 198.85 0 0 1 -79.82-152zm79.82 224h48v8h-48zm280 32h-320v-8h320z"/></g></svg>